<?xml version="1.0" encoding="utf-8"?>
<!-- Generator: Adobe Illustrator 28.1.0, SVG Export Plug-In . SVG Version: 6.00 Build 0)  -->
<svg version="1.1" id="Layer_1" xmlns="http://www.w3.org/2000/svg" xmlns:xlink="http://www.w3.org/1999/xlink" x="0px" y="0px"
	 viewBox="0 0 512 512" style="enable-background:new 0 0 512 512;" xml:space="preserve">
<style type="text/css">
	.st0{fill:#8EEF97;}
</style>
<path class="st0" d="M503.7,463.7l-57-57c13.9-21.6,21.9-47.2,21.9-74.8c0-76.4-62-138.4-138.4-138.4s-138.4,62-138.4,138.4
	s62,138.4,138.4,138.4c28.4,0,54.8-8.6,76.7-23.2l56.7,56.7c11.1,11.1,29,11.1,40,0l0,0C514.8,492.6,514.8,474.7,503.7,463.7z
	 M248.5,331.8c0-45.2,36.6-81.8,81.8-81.8s81.8,36.6,81.8,81.8s-36.6,81.8-81.8,81.8S248.5,377,248.5,331.8z"/>
<g>
	<path class="st0" d="M309.1,331.8c0-8.1-4.6-14.8-11-18.7v-7.8c-6,7.2-9.6,16.5-9.6,26.6c0,7.4,1.9,14.3,5.3,20.3
		C302.6,349.3,309.1,341.1,309.1,331.8z"/>
	<path class="st0" d="M151.8,331.8c0-7.7,0.5-15.3,1.4-22.8H66.2c-12.2,0-22.1-9.9-22.1-22.1c0-12.2,9.9-22.1,22.1-22.1h98.7
		c24-59,78.7-102.4,144.2-110.2V33.1C309.1,14.8,294.2,0,276,0H66.2C29.7,0,0,29.7,0,66.2V287c0,36.6,29.7,66.2,66.2,66.2h86.9
		C152.3,346.2,151.8,339.1,151.8,331.8z M180.4,135.9l14.2-34c0.7-1.4,2.5-2.5,4.1-2.5c1.6,0,3.4,1.1,4.1,2.5l14.3,34.2l34.2,14.3
		c1.4,0.7,2.5,2.5,2.5,3.5c0,1.6-1.1,3.4-2.5,4.1l-34.2,14.3l-14.3,34.2c-0.7,1.4-2.6,2.5-4.1,2.5c-1.6,0-3.4-1.1-4.1-2.5
		l-14.3-34.2L146,158.1c-1.4-0.7-2.5-2.5-2.5-4.1c0-1.6,1.1-3.4,2.5-4.1l34.1-14.2L180.4,135.9z M89.8,74.8l19.9-8.6l8.6-20.6
		c1-0.8,2.1-1.5,2.5-1.5s2,0.7,2.5,1.5l8.6,20.5l21.2,8.6c0.8,0.4,1.5,1.5,1.5,2.5c0,0.9-0.7,2-1.5,2.5l-21.2,8l-7.9,21.2
		c-1,0.8-1.5,1.5-3.1,1.5s-1.4-0.7-1.9-1.5l-9.2-21.2l-19.9-7.9c-1.4-1-1.5-1.5-1.5-3.1C88.3,76.3,88.4,75.2,89.8,74.8z"/>
</g>
</svg>
