<?xml version="1.0" encoding="utf-8"?>
<!-- Generator: Adobe Illustrator 28.1.0, SVG Export Plug-In . SVG Version: 6.00 Build 0)  -->
<svg version="1.1" id="Layer_1" xmlns="http://www.w3.org/2000/svg" xmlns:xlink="http://www.w3.org/1999/xlink" x="0px" y="0px"
	 viewBox="0 0 512 512" style="enable-background:new 0 0 512 512;" xml:space="preserve">
<style type="text/css">
	.st0{fill:#FFFFFF;}
</style>
<g>
	<path class="st0" d="M166.4,316.5l54.5-27.2l27.3-54.5c3.2-6.5,12.5-6.5,15.7,0l27.3,54.5l54.5,27.3c6.5,3.2,6.5,12.5,0,15.7
		l-54.5,27.3l-27.3,54.5c-3.2,6.5-12.5,6.5-15.7,0l-27.3-54.5l-54.5-27.2C159.8,329,159.8,319.8,166.4,316.5z"/>
	<g>
		<path class="st0" d="M159.7,8.2c-16.8,0-30.5,13.7-30.5,30.5v38.8c0,16.8,13.7,30.5,30.5,30.5s30.5-13.7,30.5-30.5V38.7
			C190.2,21.9,176.5,8.2,159.7,8.2L159.7,8.2z"/>
	</g>
	<path class="st0" d="M430.2,65.1v12.4c0,38.9-31.6,70.5-70.5,70.5c-38.9,0-70.5-31.6-70.5-70.5V57.1h-59v20.5
		c0,38.9-31.6,70.5-70.5,70.5s-70.5-31.6-70.5-70.5V62.6C37.5,78.4,0,126.5,0,183.3v194.2c0,69.7,56.5,126.3,126.3,126.3h259.5
		c69.7,0,126.3-56.5,126.3-126.3V183.3C512,129.2,478,83.1,430.2,65.1z M452,377.5c0,36.5-29.7,66.3-66.3,66.3H126.3
		c-36.5,0-66.3-29.7-66.3-66.3V208.7h392V377.5z"/>
	<g>
		<path class="st0" d="M359.7,8.2c-16.8,0-30.5,13.7-30.5,30.5v38.8c0,16.8,13.7,30.5,30.5,30.5s30.5-13.7,30.5-30.5V38.7
			C390.2,21.9,376.5,8.2,359.7,8.2L359.7,8.2z"/>
	</g>
</g>
</svg>
