<?xml version="1.0" encoding="UTF-8" standalone="no"?>
<!DOCTYPE svg PUBLIC "-//W3C//DTD SVG 1.1//EN" "http://www.w3.org/Graphics/SVG/1.1/DTD/svg11.dtd">
<!-- Created with Vectornator (http://vectornator.io/) -->
<svg height="512.0pt" stroke-miterlimit="10" style="fill-rule:nonzero;clip-rule:evenodd;stroke-linecap:round;stroke-linejoin:round;" version="1.1" viewBox="0 0 448 512" width="448.0pt" xml:space="preserve" xmlns="http://www.w3.org/2000/svg" xmlns:xlink="http://www.w3.org/1999/xlink">
<defs/>
<g id="Untitled">
<path d="M448 336L448 48C448 21.49 426.5 0 400 0L96 0C42.98 0 0 42.98 0 96L0 416C0 469.02 42.98 512 96 512L416 512C433.67 512 448 497.67 448 480.9C448 469.18 441.393 459.38 432 453.8L432 372.44C441.8 362.8 448 350.2 448 336ZM261.5 197L282.06 147.69C283.072 145.657 285.731 144.015 288.002 143.999C290.283 143.999 292.968 145.647 293.984 147.69L314.684 197.33L364.324 218.03C366.3 219.1 368 221.7 368 223.1C368 225.366 366.348 228.049 364.318 229.065L314.678 249.765L293.978 299.405C292.962 301.448 290.281 303.1 288.001 303.1C285.73 303.084 283.065 301.438 282.054 299.405L261.334 249.775L211.7 229.1C209.677 228.088 208.036 225.424 208.024 223.162C208.036 220.892 209.674 218.185 211.7 217.174L261.11 196.574L261.5 197ZM130.2 108.4L159.1 96L171.52 66.21C173 64.99 174.6 64 175.1 64C175.6 64 178.069 64.9902 178.678 66.217L191.1 96L221.8 108.4C223.017 109.009 224.009 110.611 224.009 111.976C224.009 113.335 223.017 114.947 221.8 115.556L191.1 127.1L179.6 157.8C178.1 159 177.4 160 175.1 160C172.8 160 173 159 172.4 157.8L159.1 127.1L130.2 115.6C128.1 114.1 128 113.4 128 111.1C128 110.6 128.1 109 130.2 108.4ZM384 448L96 448C78.33 448 64 433.67 64 416C64 398.33 78.33 384 96 384L384 384L384 448Z" fill="#ffffff" fill-rule="nonzero" opacity="1" stroke="none"/>
</g>
</svg>
