<?xml version="1.0" encoding="utf-8"?>
<!-- Generator: Adobe Illustrator 28.1.0, SVG Export Plug-In . SVG Version: 6.00 Build 0)  -->
<svg version="1.1" id="Layer_1" xmlns="http://www.w3.org/2000/svg" xmlns:xlink="http://www.w3.org/1999/xlink" x="0px" y="0px"
	 viewBox="0 0 512 512" style="enable-background:new 0 0 512 512;" xml:space="preserve">
<style type="text/css">
	.st0{fill:#8EEF97;}
</style>
<g>
	<path class="st0" d="M365.8,319.3l-8.1-18.9c-7.4-6.5-17-10.4-27.5-10.4c-18.7,0-34.5,12.3-39.8,29.2H365.8z"/>
	<path class="st0" d="M158.1,284.9l-35-11.7c-6-2-6-10.4,0-12.4l40.2-13.4l13.4-40.2c2-6,10.4-6,12.4,0l3.7,11
		c25.8-31.2,62.1-53.5,103.4-61.5l-0.9-2c-5.1-11.8-5.6-25-1.5-37.2l28.7-86.3c9.5-28.5-4-39.6-30.1-24.6L186.5,67.2
		c-19.3,11-35.4,27.8-43.6,48.3L52.3,319.3h100C153.1,307.5,155.1,296,158.1,284.9z M188.8,120.4l20.3-10.1L219.2,90
		c1.2-2.4,4.6-2.4,5.8,0l10.1,20.3l20.3,10.1c2.4,1.2,2.4,4.6,0,5.8l-20.3,10.1L225,156.7c-1.2,2.4-4.6,2.4-5.8,0L209,136.4
		l-20.3-10.1C186.3,125.1,186.3,121.6,188.8,120.4z"/>
	<path class="st0" d="M330.2,373.6c18.3,0,33.8-11.8,39.5-28.1h-78.9C296.4,361.8,312,373.6,330.2,373.6z"/>
	<path class="st0" d="M152.4,345.4H13.1c-7.2,0-13.1,5.9-13.1,13.1c0,21.6,17.5,39.2,39.2,39.2h125.3
		C157.9,381.3,153.7,363.8,152.4,345.4z"/>
</g>
<path class="st0" d="M503.7,463.7l-57-57c13.9-21.6,21.9-47.2,21.9-74.8c0-76.4-62-138.4-138.4-138.4s-138.4,62-138.4,138.4
	s62,138.4,138.4,138.4c28.4,0,54.8-8.6,76.7-23.2l56.7,56.7c11.1,11.1,29,11.1,40,0l0,0C514.8,492.6,514.8,474.7,503.7,463.7z
	 M248.5,331.8c0-45.2,36.6-81.8,81.8-81.8s81.8,36.6,81.8,81.8s-36.6,81.8-81.8,81.8S248.5,377,248.5,331.8z"/>
</svg>
