<?xml version="1.0" encoding="utf-8"?>
<!-- Generator: Adobe Illustrator 28.1.0, SVG Export Plug-In . SVG Version: 6.00 Build 0)  -->
<svg version="1.1" id="Layer_1" xmlns="http://www.w3.org/2000/svg" xmlns:xlink="http://www.w3.org/1999/xlink" x="0px" y="0px"
	 viewBox="0 0 448 512" style="enable-background:new 0 0 448 512;" xml:space="preserve">
<style type="text/css">
	.st0{fill:#FFFFFF;}
</style>
<g id="Untitled">
	<path class="st0" d="M0.1,494.1C-1,503.6,6.4,512,16.1,512l32.1,0.1c8.1,0,15.2-5.8,16.2-13.8c0.8-4.9,1.9-11.2,3.5-18.2h312
		c1.6,6.9,2.9,13.3,3.5,18.2c1.1,7.1,7.8,13.9,16,13.8l32.5-0.1c9.6,0,17.1-8.4,16-17.9C443.1,456.2,422,366,328.7,286.4
		c-17.5,12.4-37,24.4-58.5,35.5c6.2,4.6,11.6,9.4,17.1,14.1H159.7c21.2-18.1,47-35.6,78.7-51.4C410.5,199.2,442,65.9,447.9,18
		c1.1-9.5-6.3-17.9-15.9-17.9L399.6,0c-8.1,0-14.8,5.8-16,13.8c-0.8,4.9-1.9,11.2-3.4,18.2H67.7c-1.5-7-2.7-13.2-3.4-18.2
		c-1.1-8-7.9-13.9-16-13.8L16.1,0.1C6.5,0.1-1,8.5,0.1,18C5.3,60.9,31.4,171.8,160,256.1C31.5,340.3,5.2,451.2,0.1,494.1z
		 M223.9,219.7c-25.1-13.8-46.3-28.4-64.2-43.7h128.5C270.4,191.3,249,206.1,223.9,219.7z M355.1,96c-5.9,10.4-12.9,21.1-21,31.1
		h-221c-8.2-10.9-15.3-21.6-21-32L355.1,96z M93,415.1c5.9-10.4,12.7-21.1,20.9-32h219.4c8.4,10.9,15.5,21.6,21.2,32H93z"/>
</g>
</svg>
