<?xml version="1.0" encoding="utf-8"?>
<!-- Generator: Adobe Illustrator 28.1.0, SVG Export Plug-In . SVG Version: 6.00 Build 0)  -->
<svg version="1.1" id="Layer_1" xmlns="http://www.w3.org/2000/svg" xmlns:xlink="http://www.w3.org/1999/xlink" x="0px" y="0px"
	 viewBox="0 0 448 512" style="enable-background:new 0 0 448 512;" xml:space="preserve">
<style type="text/css">
	.st0{fill:#FFFFFF;}
</style>
<g>
	<path class="st0" d="M291.5,379.5c-2.3-3-4.8-6.1-7.3-9.3C284.8,374,287.7,377.8,291.5,379.5z"/>
	<path class="st0" d="M273.6,356.6c-4.1-5.2-8.2-10.4-12.1-15.4c-3.8,5.9-6.4,11-7.8,15.4H273.6z"/>
	<path class="st0" d="M116.9,308.3H68.2c4.4-7.7,9.5-15.7,15.5-23.8h42.4c5.7-12.8,12.1-24.8,18.1-35h-26.4
		c13.3-11.3,29-22.3,47.6-32.5c19.5-27.4,42.9-54,67.9-77.2l27.2-25.3l18.7,17.4c39.8-48.4,50.3-96.5,53-119
		c0.8-7.1-4.7-13.3-11.8-13.3l-24.1-0.1c-6,0-11,4.3-11.9,10.3c-0.6,3.6-1.4,8.3-2.5,13.5H49.4c-1.1-5.2-2-9.8-2.5-13.5
		C46,3.8,41-0.6,35-0.5L11-0.4C3.8-0.4-1.7,5.8-0.9,12.9c3.8,31.9,23.3,114.4,119,177.1C22.5,252.7,2.9,335.2-0.9,367.1
		c-0.8,7.1,4.7,13.3,11.9,13.3l23.9,0c6,0,11.3-4.3,12.1-10.3c0.6-3.6,1.4-8.3,2.6-13.5H108C108.2,340.6,111.7,324.2,116.9,308.3z
		 M67.5,70.2l195.7,0.7c-4.4,7.7-9.6,15.7-15.6,23.1H83.2C77,86,71.8,78,67.5,70.2z M117.8,130.4h95.6
		c-13.2,11.4-29.2,22.4-47.8,32.5C146.9,152.7,131.1,141.8,117.8,130.4z"/>
</g>
<path class="st0" d="M364.6,203.5c-13.9,12.9-26.4,26.4-37.6,40.1c-18.3-25.1-41-50.7-66.6-74.4C194.7,230.1,148,309.8,148,357.7
	C148,443,215.1,512,298,512s150-69,150-154.3C448,322.1,413.2,248.5,364.6,203.5z M351.7,431.6c-14.6,10.1-32.4,16.1-51.7,16.1
	c-48.3,0-87.6-32-87.6-83.8c0-25.9,16.2-48.7,48.7-87.6c4.7,5.4,66.3,84,66.3,84l39.3-44.8c2.8,4.5,5.3,9,7.5,13.3
	C392.4,363.7,384.7,408.5,351.7,431.6z"/>
</svg>
