<?xml version="1.0" encoding="utf-8"?>
<!-- Generator: Adobe Illustrator 28.1.0, SVG Export Plug-In . SVG Version: 6.00 Build 0)  -->
<svg version="1.1" id="Layer_1" xmlns="http://www.w3.org/2000/svg" xmlns:xlink="http://www.w3.org/1999/xlink" x="0px" y="0px"
	 viewBox="0 0 512 512" style="enable-background:new 0 0 512 512;" xml:space="preserve">
<style type="text/css">
	.st0{fill:#8EEF97;}
</style>
<path class="st0" d="M503.7,463.7l-57-57c13.9-21.6,21.9-47.2,21.9-74.8c0-76.4-62-138.4-138.4-138.4s-138.4,62-138.4,138.4
	s62,138.4,138.4,138.4c28.4,0,54.8-8.6,76.7-23.2l56.7,56.7c11.1,11.1,29,11.1,40,0l0,0C514.8,492.6,514.8,474.7,503.7,463.7z
	 M248.5,331.8c0-45.2,36.6-81.8,81.8-81.8s81.8,36.6,81.8,81.8s-36.6,81.8-81.8,81.8S248.5,377,248.5,331.8z"/>
<path class="st0" d="M123.8,77.4L123.8,77.4c-13.1,0-23.6-10.6-23.6-23.6V23.6c0-13.1,10.6-23.6,23.6-23.6h0
	c13.1,0,23.6,10.6,23.6,23.6v30.1C147.4,66.8,136.9,77.4,123.8,77.4z"/>
<path class="st0" d="M278.9,77.4L278.9,77.4c-13.1,0-23.6-10.6-23.6-23.6V23.6c0-13.1,10.6-23.6,23.6-23.6h0
	c13.1,0,23.6,10.6,23.6,23.6v30.1C302.5,66.8,291.9,77.4,278.9,77.4z"/>
<path class="st0" d="M214.8,196l-10.2-20.3c-2.5-5-9.7-5-12.2,0L171.3,218L129,239.1c-5.1,2.6-5.1,9.7,0,12.3l34.4,17.2
	C174.2,240.2,192.1,215.3,214.8,196z"/>
<g>
	<path class="st0" d="M152,337.8h-54c-28.3,0-51.4-23.1-51.4-51.4V155.5h256.8c8.8-1.3,17.8-2,26.9-2c23.6,0,46.1,4.6,66.8,13v-30.6
		c0-41.9-26.4-77.7-63.5-91.7v9.6c0,30.1-24.5,54.7-54.7,54.7c-30.1,0-54.7-24.5-54.7-54.7V37.9h-45.8v15.9
		c0,30.1-24.5,54.7-54.7,54.7c-30.1,0-54.7-24.5-54.7-54.7V42.2C29.1,54.5,0,91.7,0,135.8v150.6c0,54.1,43.8,97.9,97.9,97.9h61.8
		C155.2,369.5,152.5,353.9,152,337.8z"/>
	<path class="st0" d="M330.2,373.6c23,0,41.8-18.7,41.8-41.8c0-16-9-29.9-22.2-36.9c-4.1,24.3-25.2,42.8-50.7,42.8h-10.2
		C291.8,358,309.2,373.6,330.2,373.6z"/>
</g>
</svg>
