<?xml version="1.0" encoding="utf-8"?>
<!-- Generator: Adobe Illustrator 28.1.0, SVG Export Plug-In . SVG Version: 6.00 Build 0)  -->
<svg version="1.1" id="Layer_1" xmlns="http://www.w3.org/2000/svg" xmlns:xlink="http://www.w3.org/1999/xlink" x="0px" y="0px"
	 viewBox="0 0 448 512" style="enable-background:new 0 0 448 512;" xml:space="preserve">
<style type="text/css">
	.st0{fill:#FFFFFF;}
	.st1{fill:none;}
</style>
<path class="st0" d="M364.6,203.5c-13.9,12.9-26.4,26.4-37.6,40.1c-18.3-25.1-41-50.7-66.6-74.4C194.7,230.1,148,309.8,148,357.7
	C148,443,215.1,512,298,512s150-69,150-154.3C448,322.1,413.2,248.5,364.6,203.5z M351.7,431.6c-14.6,10.1-32.4,16.1-51.7,16.1
	c-48.3,0-87.6-32-87.6-83.8c0-25.9,16.2-48.7,48.7-87.6c4.7,5.4,66.3,84,66.3,84l39.3-44.8c2.8,4.5,5.3,9,7.5,13.3
	C392.4,363.7,384.7,408.5,351.7,431.6z"/>
<path class="st1" d="M24.8,67H-96.5c-41.6,0-75.5,33.8-75.5,75.5v16.7h272.3v-16.7C100.3,100.8,66.5,67,24.8,67z"/>
<g>
	<path class="st0" d="M210.2,64.6c1.6,9.9,7.6,18.6,16.3,23.8c2.9,1.7,5.7,3.6,8.4,5.7c8.9,6.8,16.1,15.1,21.6,24.3l4-3.7l27.2,25.2
		c14.5,13.4,28.4,27.7,41.4,42.4c2.5-2.4,4.9-4.8,7.4-7.1c4-52.1-18.3-105.1-63.5-137.8c-3.8-2.8-7.8-5.4-11.8-7.7
		C236.2,14.8,205.5,36,210.2,64.6L210.2,64.6z"/>
	<path class="st0" d="M145.2,247.9c1-1.7,2-3.4,3.1-5c-6.3-2.7-12.3-6.1-18-10.3C94.4,206,84.8,156,107.6,118.2l43.2,31
		c8.9,6.4,21-1.1,19.4-11.9L150.9,10.5c-1-6.8-7.5-11.5-14.3-10.3L10.2,22.5c-10.8,1.9-13.9,15.8-5,22.2l46.9,33.7
		C6.6,148.2,24.9,243,94.2,290.7c7.7,5.3,15.8,9.8,24.1,13.6C125.7,283.3,135.9,263.5,145.2,247.9z"/>
</g>
</svg>
