<?xml version="1.0" encoding="utf-8"?>
<!-- Generator: Adobe Illustrator 28.1.0, SVG Export Plug-In . SVG Version: 6.00 Build 0)  -->
<svg version="1.1" id="Layer_1" xmlns="http://www.w3.org/2000/svg" xmlns:xlink="http://www.w3.org/1999/xlink" x="0px" y="0px"
	 viewBox="0 0 448 512" style="enable-background:new 0 0 448 512;" xml:space="preserve">
<style type="text/css">
	.st0{fill:#FFFFFF;}
	.st1{fill:none;}
</style>
<path class="st0" d="M31.5,245.8c-11.4,0-21.6-7.3-25.3-18.1c-16.8-49,1.7-103.2,44.9-131.8l116.7-77C186.5,6.5,208.1,0,230.3,0
	c19.4,0,38.4,4.9,55.2,14.2l5.3-7.2c3-4,7.6-6.3,12.5-6.3c7.8,0,14.3,5.6,15.6,13.2l8.1,50.6c0.7,4.2-0.4,8.4-2.9,11.8
	c-2.5,3.4-6.3,5.6-10.5,6.2l-50.8,6.9c-0.7,0.1-1.5,0.1-2.2,0.1c0,0,0,0,0,0c-5.9,0-11.2-3.3-13.9-8.7c-2.7-5.3-2.1-11.6,1.4-16.4
	l5-6.8c-7.2-2.9-15-4.5-22.8-4.5c-11.8,0-23.3,3.5-33.2,10l-116.7,77c-23,15.2-32.8,43.9-23.9,69.9c4,11.6-0.3,24.4-10.5,31.1
	C41.7,244.2,36.7,245.8,31.5,245.8z"/>
<path class="st0" d="M364.6,203.5c-13.9,12.9-26.4,26.4-37.6,40.1c-18.3-25.1-41-50.7-66.6-74.4C194.7,230.1,148,309.8,148,357.7
	C148,443,215.1,512,298,512s150-69,150-154.3C448,322.1,413.2,248.5,364.6,203.5z M351.7,431.6c-14.6,10.1-32.4,16.1-51.7,16.1
	c-48.3,0-87.6-32-87.6-83.8c0-25.9,16.2-48.7,48.7-87.6c4.7,5.4,66.3,84,66.3,84l39.3-44.8c2.8,4.5,5.3,9,7.5,13.3
	C392.4,363.7,384.7,408.5,351.7,431.6z"/>
<path class="st1" d="M24.8,67h-161.4c-41.6,0-75.5,33.8-75.5,75.5v16.7h312.3v-16.7C100.3,100.8,66.5,67,24.8,67z"/>
<g>
	<path class="st0" d="M309.5,161.2c6.7,6.9,13.2,13.9,19.5,21c2.8-2.7,5.6-5.4,8.5-8.1l27.2-25.2l0.4,0.3c0.5-13.6-1.5-27.5-6.1-41
		c-3.7-10.8-13.9-18.1-25.3-18.1c-5.2,0-10.2,1.5-14.6,4.4c-10.1,6.7-14.5,19.5-10.5,31.1C312.4,137.5,312.6,149.8,309.5,161.2z"/>
	<path class="st0" d="M127.2,282.2c-7.1-0.9-14-3-20.4-6.3l5.9-7.9c3.6-4.8,4.1-11.1,1.4-16.4c-2.7-5.3-8-8.7-13.9-8.7
		c-0.7,0-1.5,0.1-2.2,0.1L47.2,250c-4.2,0.6-7.9,2.8-10.5,6.2c-2.5,3.4-3.6,7.6-2.9,11.8l8.1,50.6c1.2,7.7,7.8,13.2,15.6,13.2
		c5,0,9.5-2.3,12.5-6.3l4.8-6.5c11,6.8,23,11.6,35.6,14.3C113.6,315.7,119.9,298.2,127.2,282.2z"/>
</g>
</svg>
