<?xml version="1.0" encoding="utf-8"?>
<!-- Generator: Adobe Illustrator 28.1.0, SVG Export Plug-In . SVG Version: 6.00 Build 0)  -->
<svg version="1.1" id="Layer_1" xmlns="http://www.w3.org/2000/svg" xmlns:xlink="http://www.w3.org/1999/xlink" x="0px" y="0px"
	 viewBox="0 0 512 512" style="enable-background:new 0 0 512 512;" xml:space="preserve">
<style type="text/css">
	.st0{fill:#8EEF97;}
</style>
<g>
	<path class="st0" d="M330.2,290.1c-23,0-41.8,18.7-41.8,41.8c0,8.7,2.7,16.8,7.2,23.5l57.9-58C346.9,292.7,338.9,290.1,330.2,290.1
		z"/>
	<path class="st0" d="M151.8,331.8c0-98.4,80-178.4,178.4-178.4c17.6,0,34.5,2.6,50.6,7.3L235.1,15.1C226.8,6.9,210.3,0,198.5,0
		H25.9C11.6,0,0,11.6,0,25.9h0.1v172.5c0,11.9,6.7,28.3,15.1,36.7l142.6,142.6C153.9,363,151.8,347.6,151.8,331.8z M103.5,133
		C87.2,133,74,119.8,74,103.5C74,87,87.2,73.8,103.5,74c16.3,0,29.5,13.2,29.5,29.5C133,119.8,119.8,133,103.5,133z"/>
</g>
<path class="st0" d="M503.7,463.7l-57-57c13.9-21.6,21.9-47.2,21.9-74.8c0-76.4-62-138.4-138.4-138.4s-138.4,62-138.4,138.4
	s62,138.4,138.4,138.4c28.4,0,54.8-8.6,76.7-23.2l56.7,56.7c11.1,11.1,29,11.1,40,0l0,0C514.8,492.6,514.8,474.7,503.7,463.7z
	 M248.5,331.8c0-45.2,36.6-81.8,81.8-81.8s81.8,36.6,81.8,81.8s-36.6,81.8-81.8,81.8S248.5,377,248.5,331.8z"/>
</svg>
