<?xml version="1.0" encoding="utf-8"?>
<!-- Generator: Adobe Illustrator 28.1.0, SVG Export Plug-In . SVG Version: 6.00 Build 0)  -->
<svg version="1.1" id="Layer_1" xmlns="http://www.w3.org/2000/svg" xmlns:xlink="http://www.w3.org/1999/xlink" x="0px" y="0px"
	 viewBox="0 0 448 512" style="enable-background:new 0 0 448 512;" xml:space="preserve">
<style type="text/css">
	.st0{fill:#FFFFFF;}
</style>
<path class="st0" d="M364.6,203.5c-13.9,12.9-26.4,26.4-37.6,40.1c-18.3-25.1-41-50.7-66.6-74.4C194.7,230.1,148,309.8,148,357.7
	C148,443,215.1,512,298,512s150-69,150-154.3C448,322.1,413.2,248.5,364.6,203.5z M351.7,431.6c-14.6,10.1-32.4,16.1-51.7,16.1
	c-48.3,0-87.6-32-87.6-83.8c0-25.9,16.2-48.7,48.7-87.6c4.7,5.4,66.3,84,66.3,84l39.3-44.8c2.8,4.5,5.3,9,7.5,13.3
	C392.4,363.7,384.7,408.5,351.7,431.6z"/>
<path class="st0" d="M145.2,247.9c22.5-37.9,53.8-76.3,88.1-108.1l27.2-25.3l27.2,25.3c14.5,13.5,28.4,27.8,41.3,42.4
	c2.8-2.7,5.6-5.4,8.4-8l8.7-8.1c-2.1-5.5-5.4-10.7-9.9-15.2L198.2,12.8c-7-7-20.9-12.8-30.9-12.8H21.8C9.8,0,0,9.8,0,21.8v145.5
	c0,10,5.8,23.8,12.8,30.9l105.6,105.6C125.8,283,136,263.4,145.2,247.9z M87.3,112.2c-13.8,0-24.9-11.2-24.9-24.9
	c0-13.8,11.2-24.9,24.9-24.9c13.8,0,24.9,11.2,24.9,24.9C112.2,101,101,112.2,87.3,112.2z"/>
</svg>
