<?xml version="1.0" encoding="utf-8"?>
<!-- Generator: Adobe Illustrator 28.1.0, SVG Export Plug-In . SVG Version: 6.00 Build 0)  -->
<svg version="1.1" id="Layer_1" xmlns="http://www.w3.org/2000/svg" xmlns:xlink="http://www.w3.org/1999/xlink" x="0px" y="0px"
	 viewBox="0 0 448 512" style="enable-background:new 0 0 448 512;" xml:space="preserve">
<style type="text/css">
	.st0{fill:#FFFFFF;}
</style>
<g id="Untitled">
	<path class="st0" d="M0,60c0-15.5,12.5-28,28-28h186.8c12.8,0,30.6,7.4,39.6,16.4l177.2,177.2c21.9,21.9,21.9,57.3,0,79.2
		L272.8,463.6c-21.9,21.9-57.3,21.9-79.2,0L16.4,286.4c-9-9-16.4-26.8-16.4-39.6V60z M80,144c0,17.7,14.3,32,32,32s32-14.3,32-32
		s-14.3-32-32-32S80,126.3,80,144z"/>
</g>
</svg>
