<?xml version="1.0" encoding="utf-8"?>
<!-- Generator: Adobe Illustrator 28.1.0, SVG Export Plug-In . SVG Version: 6.00 Build 0)  -->
<svg version="1.1" id="Layer_1" xmlns="http://www.w3.org/2000/svg" xmlns:xlink="http://www.w3.org/1999/xlink" x="0px" y="0px"
	 viewBox="0 0 448 512" style="enable-background:new 0 0 448 512;" xml:space="preserve">
<style type="text/css">
	.st0{fill:#FFFFFF;}
</style>
<path class="st0" d="M364.6,203.5c-13.9,12.9-26.5,26.5-37.6,40.1c-18.3-25.1-41-50.6-66.6-74.4C194.7,230.2,148,309.8,148,357.7
	C148,443,215.1,512,298,512s150-69,150-154.3C448,322.1,413.2,248.5,364.6,203.5z M351.6,431.6c-14.5,10.1-32.3,16.1-51.7,16.1
	c-48.3,0-87.7-32-87.7-83.8c0-25.9,16.2-48.6,48.7-87.6c4.7,5.4,66.2,84,66.2,84l39.3-44.8c2.8,4.5,5.3,9.1,7.5,13.3
	C392.4,363.7,384.7,408.5,351.6,431.6z"/>
<g>
	<path class="st0" d="M108,357.7c0-1.8,0.1-3.7,0.1-5.6H13.3c-7.4,0-13.3,6-13.3,13.3c0,22.1,17.9,40,40,40h73.8
		C110,390,108,374,108,357.7z"/>
	<path class="st0" d="M295.7,384.9c-8.5-10.9-17.3-22.1-25.7-32.8h-14.7c-2,4.4-3,8.3-3,11.7c0,17.2,8.2,35.3,30,41.6h29.4
		L295.7,384.9z"/>
	<path class="st0" d="M128.4,279.5l-2.9-1c-6.1-2-6.1-10.6,0-12.6l11.7-3.9c2.7-5,5.4-9.7,8-14.1c19.5-32.9,45.7-66.1,74.7-95.2
		l-6.8-13.7l-20.6-10.3c-2.5-1.2-2.5-4.7,0-6l20.6-10.3l10.3-20.7c1.2-2.5,4.7-2.5,6,0l10.3,20.7l15,7.5l5.8-5.4l27.2,25.3
		c3.6,3.3,7.2,6.7,10.7,10.2c-2.5-9.9-2.2-20.4,1.1-30.2l29.3-87.9c9.7-29.1-4-40.3-30.6-25.1l-108,61.8
		c-19.6,11.2-36,28.4-44.5,49.2L53.3,325.5H112C115.8,309.6,121.7,293.9,128.4,279.5z"/>
</g>
</svg>
