<?xml version="1.0" encoding="utf-8"?>
<!-- Generator: Adobe Illustrator 28.1.0, SVG Export Plug-In . SVG Version: 6.00 Build 0)  -->
<svg version="1.1" id="Layer_1" xmlns="http://www.w3.org/2000/svg" xmlns:xlink="http://www.w3.org/1999/xlink" x="0px" y="0px"
	 viewBox="0 0 448 512" style="enable-background:new 0 0 448 512;" xml:space="preserve">
<style type="text/css">
	.st0{fill:#FFFFFF;}
</style>
<path class="st0" d="M364.6,203.5c-13.9,12.9-26.4,26.4-37.6,40.1c-18.3-25.1-41-50.7-66.6-74.4C194.7,230.1,148,309.8,148,357.7
	C148,443,215.1,512,298,512s150-69,150-154.3C448,322.1,413.2,248.5,364.6,203.5z M351.7,431.6c-14.6,10.1-32.4,16.1-51.7,16.1
	c-48.3,0-87.6-32-87.6-83.8c0-25.9,16.2-48.7,48.7-87.6c4.7,5.4,66.3,84,66.3,84l39.3-44.8c2.8,4.5,5.3,9,7.5,13.3
	C392.4,363.7,384.7,408.5,351.7,431.6z"/>
<path class="st0" d="M133.5,193.9l40,12.1c12-15.9,25.3-31.4,39.3-46v-24.7c0-12.7-10.3-23-23-23h0c-12.7,0-23,10.3-23,23v20.6
	l-20-6c-12.2-3.7-25,3.2-28.7,15.4v0C114.4,177.4,121.3,190.2,133.5,193.9z"/>
<g>
	<path class="st0" d="M264.5,345.1c-1-1.3-2-2.6-3.1-3.9c-1.7,2.6-3.1,5-4.3,7.3C259.6,347.4,262.1,346.3,264.5,345.1z"/>
	<path class="st0" d="M125.3,286.5c-29.3-20.4-48.5-54.3-48.5-92.7c0-62.4,50.6-112.9,112.9-112.9c43.8,0,81.7,24.9,100.5,61.3
		c13.6,12.8,26.6,26.2,38.8,40c2.8-2.7,5.6-5.4,8.4-8l17.3-16.1c-5.9-27.5-18.6-52.6-36.2-73.3l11.3-11.3c9-9,9-23.5,0-32.5h0
		c-9-9-23.5-9-32.5,0l-13.1,13.1c-17-11.5-36.2-20-56.9-24.7c0.6-2,0.9-4.1,0.9-6.2c0-12.7-10.3-23-23-23h-31c-12.7,0-23,10.3-23,23
		c0,2.2,0.3,4.2,0.9,6.2C77,46.3,21,113.5,21,193.8c0,64,35.6,119.6,88,148.2C111.4,323.1,117.7,304,125.3,286.5z"/>
</g>
</svg>
